<svg xmlns="http://www.w3.org/2000/svg" viewBox="0 0 360.36 451.27"><defs><style>.cls-1,.cls-3{fill:none;}.cls-1,.cls-2,.cls-3{stroke:#000;stroke-miterlimit:10;}.cls-1{stroke-width:28px;}.cls-2{stroke-width:2px;}.cls-3{stroke-width:10px;}</style></defs><title>Asset 1</title><g id="Layer_2" data-name="Layer 2"><g id="Layer_1-2" data-name="Layer 1"><path class="cls-1" d="M147.37,402"/><path class="cls-1" d="M147.67,7.75"/><path class="cls-1" d="M147.35,441.83"/><path class="cls-1" d="M147.37,415.82"/><path class="cls-2" d="M132.55,397.56a200.3,200.3,0,0,0,28.8,9V13.3a200.3,200.3,0,0,0-27,8.34Z"/><path class="cls-2" d="M161.35,447.84v-26a207.86,207.86,0,0,1-28.83-8.62l-.16,34.6Z"/><path class="cls-1" d="M147.37,402"/><path class="cls-1" d="M147.67,7.75"/><path class="cls-1" d="M147.35,441.83"/><path class="cls-1" d="M147.37,415.82"/><polygon points="360.35 442.92 131.34 442.92 131.34 451.27 360.36 451.22 360.35 442.92"/><path class="cls-3" d="M350,349.7a201.25,201.25,0,0,1-142.75,59.13c-111.5,0-201.88-90.39-201.88-201.88S95.73,5.06,207.23,5.06A201.25,201.25,0,0,1,350,64.19"/><path d="M346.43,67.7l7.05-7s-105.07-113-253.32-30.56C56.3,54.54-3.13,118.47.13,217.26,5.49,295,44,344,88.76,376.56c88.9,63.18,204.43,40.65,264.71-23.32l-7.06-7.09S263.73,438.7,132.35,389c-49.13-19.56-114.69-72.81-122-171.92C6.6,89.09,104.26,27.89,162.44,15.45,242.72-5.24,316.6,35.64,346.43,67.7Z"/></g></g></svg>